<!DOCTYPE svg PUBLIC "-//W3C//DTD SVG 20010904//EN" "http://www.w3.org/TR/2001/REC-SVG-20010904/DTD/svg10.dtd">
<svg version="1.0" xmlns="http://www.w3.org/2000/svg" width="598px" height="633px" viewBox="0 0 5980 6330" preserveAspectRatio="xMidYMid meet">
<g id="layer101" fill="#222222" stroke="none">
 <path d="M0 3165 l0 -3165 2990 0 2990 0 0 3165 0 3165 -2990 0 -2990 0 0 -3165z"/>
 </g>
<g id="layer102" fill="#ffffff" stroke="none">
 <path d="M0 3165 l0 -3165 2990 0 2990 0 0 3165 0 3165 -2990 0 -2990 0 0 -3165z m4747 2405 c65 -29 103 -67 103 -103 0 -39 -15 -64 -50 -82 -51 -26 -69 -19 -134 51 -70 77 -103 94 -181 94 -139 0 -323 -117 -390 -249 -21 -42 -88 -235 -110 -322 -49 -183 -48 -159 -52 -1446 l-4 -1213 -89 0 -90 0 -2 588 -3 587 -565 0 -565 0 -3 -587 -2 -588 -95 0 -95 0 0 586 c0 553 -1 585 -17 580 -10 -3 -39 -10 -64 -15 -26 -6 -79 -22 -120 -37 -347 -125 -584 -415 -692 -849 -43 -169 -52 -249 -51 -455 2 -654 227 -1112 649 -1320 159 -79 248 -100 465 -111 112 -5 197 -5 215 0 16 5 47 12 67 16 21 3 73 20 115 37 391 156 578 555 444 946 -89 258 -279 393 -534 380 -149 -8 -209 -52 -248 -178 -27 -89 -53 -115 -111 -107 -82 11 -101 77 -46 158 83 123 280 187 495 161 272 -32 489 -183 581 -404 85 -205 80 -393 -14 -586 -114 -234 -353 -393 -674 -448 -119 -20 -405 -14 -520 11 -428 94 -748 326 -934 675 -200 376 -221 951 -51 1369 156 383 475 658 881 761 65 16 129 30 141 30 l23 0 2 788 3 787 92 3 93 3 2 -783 3 -783 565 0 565 0 6 555 c6 587 5 575 59 804 57 243 183 444 355 565 53 38 167 99 219 118 124 45 278 51 363 13z"/>
 </g>

</svg>